<?xml version="1.0" encoding="UTF-8"?>
<svg id="Layer_1" xmlns="http://www.w3.org/2000/svg" viewBox="0 0 250 250">
  <defs>
    <mask id="hoop-mask">
      <circle cx="125" cy="125" r="100" fill="white" />
      <circle cx="125" cy="125" r="60" fill="black" />
    </mask>
  </defs>
  <g mask="url(#hoop-mask)">
    <path d="M 125,25 A 100,100 0 0,1 225,125 L 185,125 A 60,60 0 0,0 125,65 Z" fill="#ff0000" />
    <path d="M 225,125 A 100,100 0 0,1 125,225 L 125,185 A 60,60 0 0,0 185,125 Z" fill="#ff9900" />
    <path d="M 125,225 A 100,100 0 0,1 25,125 L 65,125 A 60,60 0 0,0 125,185 Z" fill="#33cc33" />
    <path d="M 25,125 A 100,100 0 0,1 125,25 L 125,65 A 60,60 0 0,0 65,125 Z" fill="#3399ff" />
  </g>
  
  <!-- Gear knobs -->
  <circle cx="195.71" cy="54.29" r="30" fill="#ff0000" />
  <circle cx="195.71" cy="195.71" r="30" fill="#ff9900" />
  <circle cx="54.29" cy="195.71" r="30" fill="#33cc33" />
  <circle cx="54.29" cy="54.29" r="30" fill="#3399ff" />
</svg>
